# xmcd
#
# Track frame offsets:
#	150
#	19397
#	38036
#	66488
#	88435
#	117112
#	134087
#	171181
#	187908
#	211848
#
# Disc length: 3086 seconds
#
# Revision: 1
# Processed by: cddbd v1.4PL0 Copyright (c) Steve Scherf et al.
# Submitted via: audiograbber 1.80
#
DISCID=930c0c0a
DTITLE=Van Morrison - Enlightenment
DYEAR=1900
DGENRE=
TTITLE0=Real Real Gone
TTITLE1=Enlightenment
TTITLE2=So Quit In Here
TTITLE3=Avalon Of The Heart
TTITLE4=See Me Through
TTITLE5=Youth Of 1000 Summers
TTITLE6=In The Days Before Rock n Roll
TTITLE7=Starts All Over Again
TTITLE8=She's My Baby
TTITLE9=Memories
EXTD=
EXTT0=
EXTT1=
EXTT2=
EXTT3=
EXTT4=
EXTT5=
EXTT6=
EXTT7=
EXTT8=
EXTT9=
PLAYORDER=
